<mxfile host="app.diagrams.net" agent="Mozilla/5.0 (Macintosh; Intel Mac OS X 10_15_7) AppleWebKit/537.36 (KHTML, like Gecko) Chrome/131.0.0.0 Safari/537.36" version="26.0.5">
  <diagram name="Seite-1" id="jTHiYLoiuJ-y4QwvWaS1">
    <mxGraphModel dx="1574" dy="527" grid="0" gridSize="10" guides="1" tooltips="1" connect="1" arrows="1" fold="1" page="0" pageScale="1" pageWidth="1654" pageHeight="2336" math="0" shadow="0">
      <root>
        <mxCell id="0" />
        <mxCell id="1" parent="0" />
        <mxCell id="estmPnBBNEju0i9STXqv-5" style="edgeStyle=none;curved=1;rounded=0;orthogonalLoop=1;jettySize=auto;html=1;fontSize=12;startSize=8;endSize=8;" edge="1" parent="1" source="estmPnBBNEju0i9STXqv-1" target="estmPnBBNEju0i9STXqv-3">
          <mxGeometry relative="1" as="geometry" />
        </mxCell>
        <mxCell id="estmPnBBNEju0i9STXqv-1" value="" style="verticalLabelPosition=bottom;verticalAlign=top;html=1;shape=mxgraph.basic.donut;dx=12;" vertex="1" parent="1">
          <mxGeometry x="-187" y="165" width="100" height="100" as="geometry" />
        </mxCell>
        <mxCell id="estmPnBBNEju0i9STXqv-2" value="START" style="text;html=1;align=center;verticalAlign=middle;resizable=0;points=[];autosize=1;strokeColor=none;fillColor=none;fontSize=16;" vertex="1" parent="1">
          <mxGeometry x="-171.5" y="199.5" width="69" height="31" as="geometry" />
        </mxCell>
        <mxCell id="estmPnBBNEju0i9STXqv-7" style="edgeStyle=none;curved=1;rounded=0;orthogonalLoop=1;jettySize=auto;html=1;exitX=1;exitY=0.5;exitDx=0;exitDy=0;fontSize=12;startSize=8;endSize=8;" edge="1" parent="1" source="estmPnBBNEju0i9STXqv-3" target="estmPnBBNEju0i9STXqv-6">
          <mxGeometry relative="1" as="geometry" />
        </mxCell>
        <mxCell id="estmPnBBNEju0i9STXqv-8" value="U:DeclareName" style="edgeLabel;html=1;align=center;verticalAlign=middle;resizable=0;points=[];fontSize=12;" vertex="1" connectable="0" parent="estmPnBBNEju0i9STXqv-7">
          <mxGeometry x="0.1049" y="-1" relative="1" as="geometry">
            <mxPoint x="-12" as="offset" />
          </mxGeometry>
        </mxCell>
        <mxCell id="estmPnBBNEju0i9STXqv-3" value="RequestName" style="ellipse;whiteSpace=wrap;html=1;aspect=fixed;" vertex="1" parent="1">
          <mxGeometry x="-13" y="166.5" width="97" height="97" as="geometry" />
        </mxCell>
        <mxCell id="estmPnBBNEju0i9STXqv-10" style="edgeStyle=none;curved=1;rounded=0;orthogonalLoop=1;jettySize=auto;html=1;exitX=1;exitY=0;exitDx=0;exitDy=0;entryX=0;entryY=0.5;entryDx=0;entryDy=0;fontSize=12;startSize=8;endSize=8;" edge="1" parent="1" source="estmPnBBNEju0i9STXqv-6" target="estmPnBBNEju0i9STXqv-9">
          <mxGeometry relative="1" as="geometry" />
        </mxCell>
        <mxCell id="estmPnBBNEju0i9STXqv-11" value="U:RequestRecipe" style="edgeLabel;html=1;align=center;verticalAlign=middle;resizable=0;points=[];fontSize=12;" vertex="1" connectable="0" parent="estmPnBBNEju0i9STXqv-10">
          <mxGeometry x="-0.3058" y="-1" relative="1" as="geometry">
            <mxPoint x="-1" as="offset" />
          </mxGeometry>
        </mxCell>
        <mxCell id="estmPnBBNEju0i9STXqv-13" style="edgeStyle=none;curved=1;rounded=0;orthogonalLoop=1;jettySize=auto;html=1;exitX=1;exitY=1;exitDx=0;exitDy=0;entryX=0;entryY=0.5;entryDx=0;entryDy=0;fontSize=12;startSize=8;endSize=8;" edge="1" parent="1" source="estmPnBBNEju0i9STXqv-6" target="estmPnBBNEju0i9STXqv-12">
          <mxGeometry relative="1" as="geometry" />
        </mxCell>
        <mxCell id="estmPnBBNEju0i9STXqv-14" value="U:RequestMarkt" style="edgeLabel;html=1;align=center;verticalAlign=middle;resizable=0;points=[];fontSize=12;" vertex="1" connectable="0" parent="estmPnBBNEju0i9STXqv-13">
          <mxGeometry x="-0.0663" y="1" relative="1" as="geometry">
            <mxPoint as="offset" />
          </mxGeometry>
        </mxCell>
        <mxCell id="estmPnBBNEju0i9STXqv-6" value="RequestTask" style="ellipse;whiteSpace=wrap;html=1;aspect=fixed;" vertex="1" parent="1">
          <mxGeometry x="205" y="165" width="97" height="97" as="geometry" />
        </mxCell>
        <mxCell id="estmPnBBNEju0i9STXqv-22" style="edgeStyle=none;curved=1;rounded=0;orthogonalLoop=1;jettySize=auto;html=1;exitX=0.5;exitY=1;exitDx=0;exitDy=0;entryX=0.5;entryY=0;entryDx=0;entryDy=0;fontSize=12;startSize=8;endSize=8;" edge="1" parent="1" source="estmPnBBNEju0i9STXqv-9" target="estmPnBBNEju0i9STXqv-12">
          <mxGeometry relative="1" as="geometry" />
        </mxCell>
        <mxCell id="estmPnBBNEju0i9STXqv-23" value="U:RequestMarkt" style="edgeLabel;html=1;align=center;verticalAlign=middle;resizable=0;points=[];fontSize=12;" vertex="1" connectable="0" parent="estmPnBBNEju0i9STXqv-22">
          <mxGeometry x="-0.0387" relative="1" as="geometry">
            <mxPoint as="offset" />
          </mxGeometry>
        </mxCell>
        <mxCell id="estmPnBBNEju0i9STXqv-9" value="DeclareRecipe" style="ellipse;whiteSpace=wrap;html=1;aspect=fixed;" vertex="1" parent="1">
          <mxGeometry x="396" y="30" width="97" height="97" as="geometry" />
        </mxCell>
        <mxCell id="estmPnBBNEju0i9STXqv-16" style="edgeStyle=none;curved=1;rounded=0;orthogonalLoop=1;jettySize=auto;html=1;exitX=1;exitY=0.5;exitDx=0;exitDy=0;fontSize=12;startSize=8;endSize=8;" edge="1" parent="1" source="estmPnBBNEju0i9STXqv-12" target="estmPnBBNEju0i9STXqv-15">
          <mxGeometry relative="1" as="geometry" />
        </mxCell>
        <mxCell id="estmPnBBNEju0i9STXqv-17" value="U:RequestOpeningTimes" style="edgeLabel;html=1;align=center;verticalAlign=middle;resizable=0;points=[];fontSize=12;" vertex="1" connectable="0" parent="estmPnBBNEju0i9STXqv-16">
          <mxGeometry x="-0.1301" y="1" relative="1" as="geometry">
            <mxPoint as="offset" />
          </mxGeometry>
        </mxCell>
        <mxCell id="estmPnBBNEju0i9STXqv-12" value="DeclareMarkt" style="ellipse;whiteSpace=wrap;html=1;aspect=fixed;" vertex="1" parent="1">
          <mxGeometry x="396" y="282" width="97" height="97" as="geometry" />
        </mxCell>
        <mxCell id="estmPnBBNEju0i9STXqv-19" style="edgeStyle=none;curved=1;rounded=0;orthogonalLoop=1;jettySize=auto;html=1;exitX=0;exitY=0;exitDx=0;exitDy=0;entryX=1;entryY=1;entryDx=0;entryDy=0;fontSize=12;startSize=8;endSize=8;" edge="1" parent="1" source="estmPnBBNEju0i9STXqv-15" target="estmPnBBNEju0i9STXqv-9">
          <mxGeometry relative="1" as="geometry" />
        </mxCell>
        <mxCell id="estmPnBBNEju0i9STXqv-20" value="U:RequestRecipe" style="edgeLabel;html=1;align=center;verticalAlign=middle;resizable=0;points=[];fontSize=12;" vertex="1" connectable="0" parent="estmPnBBNEju0i9STXqv-19">
          <mxGeometry x="0.0818" y="-1" relative="1" as="geometry">
            <mxPoint as="offset" />
          </mxGeometry>
        </mxCell>
        <mxCell id="estmPnBBNEju0i9STXqv-15" value="DeclareOpeningTimes" style="ellipse;whiteSpace=wrap;html=1;aspect=fixed;" vertex="1" parent="1">
          <mxGeometry x="671" y="282" width="97" height="97" as="geometry" />
        </mxCell>
        <mxCell id="estmPnBBNEju0i9STXqv-24" value="" style="verticalLabelPosition=bottom;verticalAlign=top;html=1;shape=mxgraph.basic.donut;dx=12;" vertex="1" parent="1">
          <mxGeometry x="863" y="165" width="100" height="100" as="geometry" />
        </mxCell>
        <mxCell id="estmPnBBNEju0i9STXqv-25" value="STOP" style="text;html=1;align=center;verticalAlign=middle;resizable=0;points=[];autosize=1;strokeColor=none;fillColor=none;fontSize=16;" vertex="1" parent="1">
          <mxGeometry x="885.5" y="200.5" width="61" height="31" as="geometry" />
        </mxCell>
        <mxCell id="estmPnBBNEju0i9STXqv-26" style="edgeStyle=none;curved=1;rounded=0;orthogonalLoop=1;jettySize=auto;html=1;exitX=1;exitY=0.5;exitDx=0;exitDy=0;entryX=0.53;entryY=0.995;entryDx=0;entryDy=0;entryPerimeter=0;fontSize=12;startSize=8;endSize=8;" edge="1" parent="1" source="estmPnBBNEju0i9STXqv-15" target="estmPnBBNEju0i9STXqv-24">
          <mxGeometry relative="1" as="geometry" />
        </mxCell>
        <mxCell id="estmPnBBNEju0i9STXqv-27" value="U:Bye" style="edgeLabel;html=1;align=center;verticalAlign=middle;resizable=0;points=[];fontSize=12;" vertex="1" connectable="0" parent="estmPnBBNEju0i9STXqv-26">
          <mxGeometry x="0.3321" y="-1" relative="1" as="geometry">
            <mxPoint as="offset" />
          </mxGeometry>
        </mxCell>
        <mxCell id="estmPnBBNEju0i9STXqv-28" style="edgeStyle=none;curved=1;rounded=0;orthogonalLoop=1;jettySize=auto;html=1;exitX=1;exitY=0.5;exitDx=0;exitDy=0;entryX=0.04;entryY=0.365;entryDx=0;entryDy=0;entryPerimeter=0;fontSize=12;startSize=8;endSize=8;" edge="1" parent="1" source="estmPnBBNEju0i9STXqv-9" target="estmPnBBNEju0i9STXqv-24">
          <mxGeometry relative="1" as="geometry" />
        </mxCell>
        <mxCell id="estmPnBBNEju0i9STXqv-29" value="U:Bye" style="edgeLabel;html=1;align=center;verticalAlign=middle;resizable=0;points=[];fontSize=12;" vertex="1" connectable="0" parent="estmPnBBNEju0i9STXqv-28">
          <mxGeometry x="-0.1421" y="2" relative="1" as="geometry">
            <mxPoint as="offset" />
          </mxGeometry>
        </mxCell>
      </root>
    </mxGraphModel>
  </diagram>
</mxfile>
